<svg width="14" height="14" viewBox="0 0 14 14" fill="none" xmlns="http://www.w3.org/2000/svg">
<path d="M13.2141 2.19369C9.29615 -1.33236 2.74441 -0.606908 0.556542 4.36443C-1.47675 8.98148 2.33419 14.1215 7.56011 13.9978C12.4234 13.8797 16.6505 8.29539 11.9656 4.82558C10.0571 3.41403 6.6921 3.30718 4.86689 4.96054C3.44002 6.25399 3.40434 8.43036 5.44358 9.05459C6.05001 9.24017 6.82289 8.61032 6.55535 8.00296C6.00839 6.7545 8.23789 6.4227 9.12968 6.62515C10.9311 7.03006 11.4959 9.06021 10.1582 10.2356C8.49354 11.7033 5.38413 11.6471 3.73133 10.2524C1.3651 8.26727 1.44834 4.80308 3.56487 2.6942C6.16891 0.101678 10.2117 0.337873 13.0833 2.35115C13.1784 2.41864 13.2973 2.27242 13.2082 2.19369H13.2141Z" fill="#624137"/>
</svg>
