<svg width="184" height="55" viewBox="0 0 184 55" fill="none" xmlns="http://www.w3.org/2000/svg">
<g clip-path="url(#clip0_381_555)">
<path d="M108.505 49.0857C107.389 50.7641 105.772 51.727 103.877 51.727C100.029 51.727 97.7154 48.7005 97.7154 43.693C97.7154 39.5935 98.6076 37.585 100.42 37.585C101.925 37.585 101.451 39.9511 101.451 41.7395C101.451 43.3629 102.985 44.656 104.964 44.656C106.637 44.656 107.78 43.7205 107.78 42.3173C107.78 39.0432 104.908 36.9521 100.42 36.9521C95.2621 36.9521 91.5542 40.7215 91.5542 45.9216C91.5542 51.1217 95.0948 55.0287 100.225 55.0287C104.128 55.0287 107.306 52.8826 108.755 49.2783C108.923 48.8931 108.644 48.7831 108.477 49.0857H108.505Z" fill="#81675F"/>
<path d="M129.832 52.1385C129.525 52.4686 129.218 52.7438 128.967 52.7438C128.466 52.7438 128.159 52.1385 128.159 51.2305V43.6642C128.159 39.0144 125.845 36.9233 120.659 36.9233C115.474 36.9233 112.379 38.6292 112.379 41.5732C112.379 43.0039 113.523 43.9118 115.195 43.9118C117.175 43.9118 118.708 42.6187 118.708 40.9954C118.708 38.299 119.015 37.6112 120.102 37.6112C121.412 37.6112 121.803 38.4091 121.803 41.0779V43.6092C118.792 43.8843 111.738 44.7923 111.738 50.2125C111.738 52.9914 113.941 54.9999 116.924 54.9999C119.098 54.9999 120.715 54.0919 121.942 52.0559C122.416 53.8168 123.921 54.9449 125.929 54.9449C127.796 54.9449 129.553 54.1194 130.389 52.4961C130.501 52.3035 130.055 51.8633 129.859 52.1109L129.832 52.1385ZM121.803 50.8728C121.803 51.7257 121.022 52.3586 120.13 52.3586C118.847 52.3586 117.983 50.9829 117.983 48.8918C117.983 46.1955 119.293 44.5997 121.803 44.2695V50.8728Z" fill="#81675F"/>
<path d="M147.618 39.8681C148.956 39.8681 149.653 41.6565 151.27 41.6565C152.497 41.6565 153.64 40.3634 153.64 38.9877C153.64 37.7221 152.804 36.9517 151.465 36.9517C147.758 36.9517 142.6 42.4819 140.537 44.6005V23.9102C140.537 20.3334 140.425 18.4074 140.425 15.1608C140.425 10.511 138.111 8.41992 132.926 8.41992C127.741 8.41992 124.646 10.1258 124.646 13.0697C124.646 14.5005 125.789 15.4084 127.462 15.4084C129.441 15.4084 130.974 14.1153 130.974 12.492C130.974 9.79561 131.281 9.08025 132.368 9.08025C133.679 9.08025 134.069 9.87815 134.069 12.547V15.0783C131.058 15.3534 124.005 16.2613 124.005 21.6816C124.005 24.4604 126.207 26.4689 129.19 26.4689C131.365 26.4689 132.954 25.561 134.181 23.5525V51.3689C134.181 52.8271 133.651 53.8726 132.619 54.4504V54.6705H142.126V54.4504C141.094 53.9002 140.565 52.8271 140.565 51.3689V45.3709L146.782 54.6705H154.365L145.193 40.9137C145.694 40.2258 146.587 39.8681 147.646 39.8681H147.618ZM134.069 22.3694C134.069 23.2223 133.288 23.8551 132.396 23.8551C131.114 23.8551 130.25 22.4795 130.25 20.3884C130.25 17.6921 131.56 16.0963 134.069 15.7661V22.3694Z" fill="#81675F"/>
<path d="M173.992 49.0844C172.877 50.7628 171.26 51.7257 169.364 51.7257C166.075 51.7257 163.956 49.5522 163.37 45.8103L173.713 45.5351C173.713 40.4176 170.535 36.9233 165.852 36.9233C160.75 36.9233 157.07 40.6377 157.07 45.8928C157.07 51.148 160.61 54.9999 165.74 54.9999C169.643 54.9999 172.821 52.8538 174.271 49.2495C174.438 48.8643 174.159 48.7543 173.992 49.0569V49.0844ZM163.231 43.6917C163.231 39.8398 164.235 37.5837 165.963 37.5837C167.692 37.5837 167.469 40.6652 167.469 41.8483C167.469 44.2695 166.799 45.1224 164.904 45.0949H163.287C163.259 44.6547 163.231 44.2145 163.231 43.7192V43.6917Z" fill="#81675F"/>
<path d="M45.4426 23.635C45.1359 23.9652 44.8292 24.2403 44.5783 24.2403C44.0765 24.2403 43.7698 23.635 43.7698 22.7271V15.1608C43.7698 10.511 41.4559 8.41992 36.2705 8.41992C31.085 8.41992 27.9905 10.1258 27.9905 13.0697C27.9905 14.5005 29.1335 15.4084 30.8062 15.4084C32.7856 15.4084 34.3189 14.1153 34.3189 12.492C34.3189 9.79561 34.6256 9.08025 35.7129 9.08025C37.0232 9.08025 37.4135 9.87815 37.4135 12.547V15.0783C34.4026 15.3534 27.3492 16.2613 27.3492 21.6816C27.3492 24.4604 29.5517 26.4689 32.5347 26.4689C34.7092 26.4689 36.2983 25.5335 37.5529 23.525C38.0268 25.2859 39.5323 26.4414 41.5395 26.4414C43.4074 26.4414 45.1638 25.616 46.0002 23.9927C46.1117 23.8001 45.6656 23.3599 45.4705 23.6075L45.4426 23.635ZM37.4135 22.3694C37.4135 23.2223 36.6329 23.8551 35.7408 23.8551C34.4583 23.8551 33.5941 22.4795 33.5941 20.3884C33.5941 17.6921 34.9044 16.0963 37.4135 15.7661V22.3694Z" fill="#81675F"/>
<path d="M66.6299 22.8639V14.3622C66.6299 10.5928 64.5948 8.41921 61.082 8.41921C58.8796 8.41921 57.0675 9.71236 56.1196 11.7759V3.30165C56.1196 1.84342 55.4784 0 54.9766 0C54.2517 0 53.1087 1.10055 48.3414 2.25613C48.202 2.28364 48.1741 2.31116 48.1741 2.3937C48.1741 2.47624 48.2299 2.53127 48.3414 2.58629C49.3172 3.08154 49.7354 3.96198 49.7354 5.33767V22.8915C49.7354 24.3497 49.2057 25.3952 48.1741 25.973V26.1931H57.6808V25.973C56.6493 25.4227 56.1196 24.3497 56.1196 22.8915V13.4267C56.5935 11.8034 57.2905 11.2806 58.3499 11.2806C59.4093 11.2806 60.2457 12.4912 60.2457 14.087V22.8915C60.2457 24.3497 59.716 25.3952 58.7123 25.973V26.1931H68.1632V25.973C67.1317 25.4227 66.602 24.3497 66.602 22.8915L66.6299 22.8639Z" fill="#81675F"/>
<path d="M78.7024 22.8646V11.7216C78.7024 10.2633 78.0612 8.41992 77.5594 8.41992C76.8345 8.41992 75.6915 9.52047 70.9242 10.6761C70.7848 10.7036 70.757 10.7311 70.757 10.8136C70.757 10.8962 70.8127 10.9512 70.9242 11.0062C71.8164 11.6115 72.3182 12.3819 72.3182 13.7576V22.8922C72.3182 24.3504 71.7885 25.3959 70.757 25.9737V26.1938H80.2636V25.9737C79.2321 25.4234 78.7024 24.3504 78.7024 22.8922V22.8646Z" fill="#81675F"/>
<path d="M76.7218 1.21866C74.6423 -0.740167 71.1648 -0.337156 70.0035 2.42457C68.9243 4.98948 70.9471 7.84493 73.7208 7.7762C76.3021 7.71059 78.5457 4.60834 76.0591 2.68075C75.0462 1.8966 73.2601 1.83724 72.2913 2.75573C71.534 3.47428 71.5151 4.68332 72.5974 5.03009C72.9193 5.13319 73.3295 4.78329 73.1875 4.44588C72.8972 3.75233 74.0806 3.568 74.5539 3.68047C75.51 3.90541 75.8098 5.03322 75.0998 5.68616C74.2163 6.50156 72.5659 6.47032 71.6886 5.69553C70.4327 4.59272 70.4769 2.66826 71.6003 1.49671C72.9824 0.0564852 75.1282 0.187698 76.6524 1.30614C76.7029 1.34363 76.766 1.2624 76.7186 1.21866H76.7218Z" fill="#81675F"/>
<path d="M92.2783 25.9462C91.2468 25.3959 90.7171 24.3229 90.7171 22.8646V14.0602C90.8287 13.5375 91.1911 13.2073 91.6929 13.2073C93.4214 13.2073 93.5887 14.528 95.6796 14.528C97.3244 14.528 98.7462 12.9047 98.7462 11.0612C98.7462 9.41042 97.6868 8.41992 95.9305 8.41992C94.1741 8.41992 92.3341 9.90566 90.7171 12.602V11.7216C90.7171 10.2633 90.0759 8.41992 89.5741 8.41992C88.8493 8.41992 87.7341 9.52047 82.9947 10.6761C82.8553 10.7036 82.8274 10.7311 82.8274 10.8136C82.8274 10.8962 82.8832 10.9512 82.9947 11.0062C83.859 11.6115 84.3608 12.3544 84.3608 13.7576V22.8922C84.3608 24.3504 83.8311 25.3959 82.8274 25.9737V26.1938H92.2783V25.9737V25.9462Z" fill="#81675F"/>
<path d="M111.432 11.2538C112.491 11.2538 113.328 12.4644 113.328 14.0602V22.8646C113.328 24.3229 112.798 25.3684 111.795 25.9462V26.1663H121.245V25.9462C120.214 25.3959 119.684 24.3229 119.684 22.8646V14.3629C119.684 10.5935 117.649 8.41992 114.136 8.41992C111.934 8.41992 110.122 9.71307 109.174 11.7766C109.174 11.2538 108.811 8.41992 108.031 8.41992C107.25 8.41992 106.163 9.52047 101.396 10.6761C101.256 10.7036 101.228 10.7311 101.228 10.8136C101.228 10.8962 101.284 10.9512 101.396 11.0062C102.288 11.6115 102.79 12.3819 102.79 13.7576V22.8922C102.79 24.3504 102.26 25.3959 101.228 25.9737V26.1938H110.735V25.9737C109.704 25.4234 109.174 24.3504 109.174 22.8922V13.4274C109.648 11.8316 110.345 11.2814 111.404 11.2814L111.432 11.2538Z" fill="#81675F"/>
<path d="M5.07394 7.98002L16.6715 26.5793H22.1358L22.3309 7.925C22.3588 4.40324 22.6376 1.59683 24.0036 1.23915V1.01904H14.2739V1.23915C17.0339 1.81694 17.7867 5.20113 17.9539 9.21814V15.2437L18.0376 18.6829C17.8982 18.4077 17.48 17.7474 16.8109 16.7019L6.85818 1.01904H1.17091V1.5418L1.67273 19.5908C1.64485 23.1126 1.36606 25.919 0 26.2767V26.4968H9.7297V26.2767C7.22061 25.7539 6.38424 22.92 6.13333 19.4257V11.7769C6.13333 9.98853 6.07758 8.66787 5.99394 7.78743" fill="#81675F"/>
</g>
<defs>
<clipPath id="clip0_381_555">
<rect width="184" height="55" fill="white"/>
</clipPath>
</defs>
</svg>
