<svg width="143" height="43" viewBox="0 0 143 43" fill="none" xmlns="http://www.w3.org/2000/svg">
<g clip-path="url(#clip0_866_3182)">
<path d="M84.3266 38.3759C83.46 39.688 82.2033 40.4409 80.73 40.4409C77.74 40.4409 75.9417 38.0747 75.9417 34.1598C75.9417 30.9547 76.635 29.3844 78.0433 29.3844C79.2133 29.3844 78.845 31.2343 78.845 32.6325C78.845 33.9017 80.0367 34.9127 81.575 34.9127C82.875 34.9127 83.7633 34.1813 83.7633 33.0842C83.7633 30.5245 81.5317 28.8896 78.0433 28.8896C74.035 28.8896 71.1533 31.8366 71.1533 35.9022C71.1533 39.9677 73.905 43.0222 77.8917 43.0222C80.925 43.0222 83.395 41.3444 84.5216 38.5265C84.6516 38.2253 84.435 38.1393 84.305 38.3759H84.3266Z" fill="#624137"/>
<path d="M100.902 40.7631C100.663 41.0213 100.425 41.2364 100.23 41.2364C99.8398 41.2364 99.6015 40.7631 99.6015 40.0533V34.1378C99.6015 30.5025 97.8032 28.8677 93.7732 28.8677C89.7432 28.8677 87.3382 30.2013 87.3382 32.503C87.3382 33.6216 88.2265 34.3314 89.5265 34.3314C91.0648 34.3314 92.2565 33.3204 92.2565 32.0513C92.2565 29.9432 92.4948 29.4054 93.3398 29.4054C94.3582 29.4054 94.6615 30.0293 94.6615 32.1158V34.0948C92.3215 34.3099 86.8398 35.0198 86.8398 39.2574C86.8398 41.43 88.5515 43.0002 90.8698 43.0002C92.5598 43.0002 93.8165 42.2904 94.7698 40.6986C95.1382 42.0753 96.3082 42.9572 97.8682 42.9572C99.3198 42.9572 100.685 42.3119 101.335 41.0428C101.422 40.8922 101.075 40.548 100.923 40.7416L100.902 40.7631ZM94.6615 39.7736C94.6615 40.4405 94.0548 40.9352 93.3615 40.9352C92.3648 40.9352 91.6932 39.8597 91.6932 38.2249C91.6932 36.1168 92.7115 34.8692 94.6615 34.611V39.7736Z" fill="#624137"/>
<path d="M114.725 31.1698C115.765 31.1698 116.307 32.568 117.563 32.568C118.517 32.568 119.405 31.557 119.405 30.4815C119.405 29.492 118.755 28.8897 117.715 28.8897C114.833 28.8897 110.825 33.2133 109.222 34.8696V18.6936C109.222 15.8972 109.135 14.3914 109.135 11.8531C109.135 8.21783 107.337 6.58301 103.307 6.58301C99.2766 6.58301 96.8716 7.91667 96.8716 10.2183C96.8716 11.3369 97.76 12.0467 99.06 12.0467C100.598 12.0467 101.79 11.0357 101.79 9.7666C101.79 7.65855 102.028 7.09927 102.873 7.09927C103.892 7.09927 104.195 7.72308 104.195 9.80962V11.7886C101.855 12.0037 96.3733 12.7136 96.3733 16.9512C96.3733 19.1238 98.085 20.6941 100.403 20.6941C102.093 20.6941 103.328 19.9842 104.282 18.4139V40.1613C104.282 41.3014 103.87 42.1188 103.068 42.5705V42.7426H110.457V42.5705C109.655 42.1403 109.243 41.3014 109.243 40.1613V35.472L114.075 42.7426H119.968L112.84 31.9872C113.23 31.4494 113.923 31.1698 114.747 31.1698H114.725ZM104.195 17.489C104.195 18.1558 103.588 18.6505 102.895 18.6505C101.898 18.6505 101.227 17.575 101.227 15.9402C101.227 13.8321 102.245 12.5845 104.195 12.3264V17.489Z" fill="#624137"/>
<path d="M135.221 38.3754C134.355 39.6876 133.098 40.4405 131.625 40.4405C129.068 40.4405 127.421 38.7411 126.966 35.8156L135.005 35.6005C135.005 31.5995 132.535 28.8677 128.895 28.8677C124.93 28.8677 122.07 31.7716 122.07 35.8802C122.07 39.9887 124.821 43.0002 128.808 43.0002C131.841 43.0002 134.311 41.3224 135.438 38.5045C135.568 38.2033 135.351 38.1173 135.221 38.3539V38.3754ZM126.858 34.1593C126.858 31.1478 127.638 29.3839 128.981 29.3839C130.325 29.3839 130.151 31.7931 130.151 32.7181C130.151 34.611 129.631 35.2779 128.158 35.2564H126.901C126.88 34.9122 126.858 34.568 126.858 34.1808V34.1593Z" fill="#624137"/>
<path d="M35.3165 18.4785C35.0782 18.7366 34.8399 18.9517 34.6449 18.9517C34.2549 18.9517 34.0165 18.4785 34.0165 17.7686V11.8531C34.0165 8.21783 32.2182 6.58301 28.1882 6.58301C24.1582 6.58301 21.7532 7.91667 21.7532 10.2183C21.7532 11.3369 22.6415 12.0467 23.9415 12.0467C25.4799 12.0467 26.6715 11.0357 26.6715 9.7666C26.6715 7.65855 26.9099 7.09927 27.7549 7.09927C28.7732 7.09927 29.0765 7.72308 29.0765 9.80962V11.7886C26.7365 12.0037 21.2549 12.7136 21.2549 16.9512C21.2549 19.1238 22.9665 20.6941 25.2849 20.6941C26.9749 20.6941 28.2099 19.9627 29.1849 18.3924C29.5532 19.7691 30.7232 20.6726 32.2832 20.6726C33.7349 20.6726 35.0999 20.0272 35.7499 18.7581C35.8365 18.6075 35.4899 18.2633 35.3382 18.4569L35.3165 18.4785ZM29.0765 17.489C29.0765 18.1558 28.4699 18.6505 27.7765 18.6505C26.7799 18.6505 26.1082 17.575 26.1082 15.9402C26.1082 13.8321 27.1265 12.5845 29.0765 12.3264V17.489Z" fill="#624137"/>
<path d="M51.7833 17.8754V11.2286C51.7833 8.28164 50.2016 6.58229 47.4716 6.58229C45.7599 6.58229 44.3516 7.5933 43.6149 9.20661V2.58129C43.6149 1.44122 43.1166 0 42.7266 0C42.1633 0 41.2749 0.86043 37.5699 1.76388C37.4616 1.78539 37.4399 1.8069 37.4399 1.87144C37.4399 1.93597 37.4833 1.97899 37.5699 2.02201C38.3283 2.40921 38.6533 3.09755 38.6533 4.17309V17.897C38.6533 19.037 38.2416 19.8544 37.4399 20.3062V20.4782H44.8283V20.3062C44.0266 19.8759 43.6149 19.037 43.6149 17.897V10.4973C43.9833 9.22812 44.5249 8.81941 45.3483 8.81941C46.1716 8.81941 46.8216 9.76589 46.8216 11.0135V17.897C46.8216 19.037 46.4099 19.8544 45.6299 20.3062V20.4782H52.9749V20.3062C52.1733 19.8759 51.7616 19.037 51.7616 17.897L51.7833 17.8754Z" fill="#624137"/>
<path d="M61.165 17.8762V9.1643C61.165 8.02423 60.6667 6.58301 60.2767 6.58301C59.7133 6.58301 58.825 7.44344 55.12 8.34689C55.0117 8.3684 54.99 8.38991 54.99 8.45444C54.99 8.51898 55.0333 8.562 55.12 8.60502C55.8133 9.07826 56.2033 9.68056 56.2033 10.7561V17.8977C56.2033 19.0377 55.7917 19.8551 54.99 20.3069V20.479H62.3783V20.3069C61.5767 19.8767 61.165 19.0377 61.165 17.8977V17.8762Z" fill="#624137"/>
<path d="M59.6259 0.952771C58.0097 -0.578676 55.3071 -0.263594 54.4046 1.89557C53.5659 3.90087 55.1379 6.13331 57.2936 6.07958C59.2997 6.02828 61.0434 3.60288 59.1109 2.09586C58.3236 1.48279 56.9355 1.43639 56.1826 2.15448C55.5941 2.71625 55.5793 3.6615 56.4205 3.93262C56.6707 4.01322 56.9895 3.73966 56.8791 3.47587C56.6535 2.93364 57.5732 2.78953 57.941 2.87746C58.6841 3.05332 58.9171 3.93506 58.3653 4.44554C57.6786 5.08304 56.396 5.05861 55.7142 4.45287C54.7382 3.59067 54.7725 2.08609 55.6456 1.17015C56.7197 0.0441612 58.3874 0.146746 59.5719 1.02116C59.6112 1.05047 59.6602 0.986966 59.6234 0.952771H59.6259Z" fill="#624137"/>
<path d="M71.7166 20.2854C70.9149 19.8551 70.5033 19.0162 70.5033 17.8762V10.9927C70.5899 10.584 70.8716 10.3259 71.2616 10.3259C72.6049 10.3259 72.7349 11.3584 74.3599 11.3584C75.6382 11.3584 76.7432 10.0893 76.7432 8.64804C76.7432 7.3574 75.9199 6.58301 74.5549 6.58301C73.1899 6.58301 71.7599 7.74459 70.5033 9.85264V9.1643C70.5033 8.02423 70.0049 6.58301 69.6149 6.58301C69.0516 6.58301 68.1849 7.44344 64.5016 8.34689C64.3933 8.3684 64.3716 8.38991 64.3716 8.45444C64.3716 8.51898 64.4149 8.562 64.5016 8.60502C65.1733 9.07826 65.5633 9.65905 65.5633 10.7561V17.8977C65.5633 19.0377 65.1516 19.8551 64.3716 20.3069V20.479H71.7166V20.3069V20.2854Z" fill="#624137"/>
<path d="M86.6016 8.79862C87.425 8.79862 88.075 9.74509 88.075 10.9927V17.8762C88.075 19.0162 87.6633 19.8336 86.8833 20.2854V20.4574H94.2283V20.2854C93.4266 19.8551 93.015 19.0162 93.015 17.8762V11.2293C93.015 8.28236 91.4333 6.58301 88.7033 6.58301C86.9916 6.58301 85.5833 7.59401 84.8466 9.20732C84.8466 8.79862 84.565 6.58301 83.9583 6.58301C83.3516 6.58301 82.5066 7.44344 78.8016 8.34689C78.6933 8.3684 78.6716 8.38991 78.6716 8.45444C78.6716 8.51898 78.715 8.562 78.8016 8.60502C79.495 9.07826 79.885 9.68056 79.885 10.7561V17.8977C79.885 19.0377 79.4733 19.8551 78.6716 20.3069V20.479H86.06V20.3069C85.2583 19.8767 84.8466 19.0377 84.8466 17.8977V10.498C85.215 9.25034 85.7566 8.82013 86.58 8.82013L86.6016 8.79862Z" fill="#624137"/>
<path d="M3.94333 6.23861L12.9567 20.7799H17.2033L17.355 6.19559C17.3767 3.44221 17.5933 1.24811 18.655 0.968473V0.796387H11.0933V0.968473C13.2383 1.4202 13.8233 4.06602 13.9533 7.20659V11.9174L14.0183 14.6063C13.91 14.3912 13.585 13.8749 13.065 13.0575L5.33 0.796387H0.91V1.20509L1.3 15.3161C1.27833 18.0695 1.06167 20.2636 0 20.5433V20.7153H7.56167V20.5433C5.61167 20.1346 4.96167 17.9189 4.76667 15.1871V9.20709C4.76667 7.80889 4.72333 6.77638 4.65833 6.08803" fill="#624137"/>
</g>
<defs>
<clipPath id="clip0_866_3182">
<rect width="143" height="43" fill="white"/>
</clipPath>
</defs>
</svg>
