<svg width="543" height="164" viewBox="0 0 543 164" fill="none" xmlns="http://www.w3.org/2000/svg">
<g clip-path="url(#clip0_187_1540)">
<path d="M320.206 146.364C316.915 151.368 312.143 154.239 306.549 154.239C295.195 154.239 288.367 145.215 288.367 130.283C288.367 118.059 290.999 112.07 296.347 112.07C300.79 112.07 299.391 119.126 299.391 124.459C299.391 129.299 303.916 133.155 309.758 133.155C314.694 133.155 318.067 130.366 318.067 126.181C318.067 116.419 309.593 110.183 296.347 110.183C281.127 110.183 270.184 121.423 270.184 136.929C270.184 152.435 280.633 164.084 295.771 164.084C307.289 164.084 316.668 157.685 320.947 146.938C321.44 145.789 320.618 145.461 320.124 146.364H320.206Z" fill="#A2714C"/>
<path d="M383.144 155.468C382.239 156.453 381.334 157.273 380.594 157.273C379.113 157.273 378.208 155.468 378.208 152.761V130.2C378.208 116.335 371.379 110.099 356.076 110.099C340.774 110.099 331.641 115.186 331.641 123.964C331.641 128.231 335.014 130.938 339.951 130.938C345.792 130.938 350.317 127.082 350.317 122.242C350.317 114.202 351.222 112.151 354.431 112.151C358.298 112.151 359.449 114.53 359.449 122.488V130.035C350.564 130.856 329.749 133.563 329.749 149.725C329.749 158.011 336.249 164 345.052 164C351.469 164 356.241 161.293 359.861 155.222C361.259 160.473 365.702 163.836 371.626 163.836C377.138 163.836 382.321 161.375 384.789 156.535C385.119 155.96 383.802 154.648 383.226 155.386L383.144 155.468ZM359.449 151.694C359.449 154.238 357.146 156.125 354.513 156.125C350.729 156.125 348.178 152.022 348.178 145.787C348.178 137.747 352.045 132.989 359.449 132.004V151.694Z" fill="#A2714C"/>
<path d="M435.634 118.879C439.583 118.879 441.64 124.212 446.412 124.212C450.032 124.212 453.405 120.356 453.405 116.254C453.405 112.48 450.937 110.183 446.988 110.183C436.046 110.183 420.825 126.673 414.737 132.99V71.2954C414.737 60.6301 414.408 54.8872 414.408 45.2064C414.408 31.3415 407.579 25.1064 392.277 25.1064C376.974 25.1064 367.842 30.1929 367.842 38.9713C367.842 43.2374 371.215 45.9448 376.151 45.9448C381.992 45.9448 386.517 42.0888 386.517 37.2484C386.517 29.2084 387.422 27.0753 390.631 27.0753C394.498 27.0753 395.65 29.4545 395.65 37.4125V44.9603C386.764 45.7807 365.949 48.488 365.949 64.6501C365.949 72.9363 372.449 78.9252 381.252 78.9252C387.669 78.9252 392.359 76.2179 395.979 70.2289V153.172C395.979 157.521 394.416 160.638 391.372 162.361V163.017H419.427V162.361C416.382 160.72 414.819 157.521 414.819 153.172V135.287L433.166 163.017H455.544L428.477 121.997C429.957 119.946 432.59 118.879 435.717 118.879H435.634ZM395.65 66.7011C395.65 69.2444 393.346 71.1314 390.713 71.1314C386.929 71.1314 384.378 67.0293 384.378 60.7942C384.378 52.7542 388.245 47.9958 395.65 47.0113V66.7011Z" fill="#A2714C"/>
<path d="M513.464 146.362C510.173 151.366 505.401 154.238 499.807 154.238C490.099 154.238 483.846 147.756 482.118 136.599L512.641 135.778C512.641 120.519 503.262 110.099 489.441 110.099C474.385 110.099 463.525 121.175 463.525 136.845C463.525 152.515 473.973 164 489.111 164C500.63 164 510.009 157.601 514.287 146.854C514.781 145.705 513.958 145.377 513.464 146.28V146.362ZM481.707 130.282C481.707 118.796 484.669 112.068 489.77 112.068C494.871 112.068 494.212 121.257 494.212 124.785C494.212 132.004 492.238 134.548 486.643 134.466H481.871C481.789 133.153 481.707 131.84 481.707 130.364V130.282Z" fill="#A2714C"/>
<path d="M134.105 70.475C133.2 71.4595 132.295 72.28 131.554 72.28C130.073 72.28 129.168 70.475 129.168 67.7677V45.2064C129.168 31.3415 122.34 25.1064 107.037 25.1064C91.7343 25.1064 82.602 30.1929 82.602 38.9713C82.602 43.2374 85.9752 45.9448 90.9115 45.9448C96.7529 45.9448 101.278 42.0888 101.278 37.2484C101.278 29.2084 102.183 27.0753 105.392 27.0753C109.258 27.0753 110.41 29.4545 110.41 37.4125V44.9603C101.525 45.7807 80.7097 48.4881 80.7097 64.6501C80.7097 72.9363 87.2093 78.9253 96.0124 78.9253C102.43 78.9253 107.119 76.1359 110.822 70.1469C112.22 75.3975 116.663 78.8432 122.587 78.8432C128.099 78.8432 133.282 76.382 135.75 71.5416C136.079 70.9673 134.763 69.6546 134.187 70.393L134.105 70.475ZM110.41 66.7012C110.41 69.2444 108.107 71.1314 105.474 71.1314C101.689 71.1314 99.1388 67.0293 99.1388 60.7942C99.1388 52.7542 103.006 47.9958 110.41 47.0113V66.7012Z" fill="#A2714C"/>
<path d="M196.632 68.1766V42.8259C196.632 31.5863 190.626 25.105 180.26 25.105C173.761 25.105 168.413 28.9609 165.616 35.114V9.84538C165.616 5.49721 163.723 0.000457764 162.242 0.000457764C160.103 0.000457764 156.73 3.2821 142.661 6.72782C142.25 6.80986 142.168 6.89191 142.168 7.13803C142.168 7.38415 142.332 7.54823 142.661 7.71232C145.541 9.18905 146.775 11.8144 146.775 15.9164V68.2586C146.775 72.6068 145.212 75.7243 142.168 77.4472V78.1035H170.223V77.4472C167.179 75.8064 165.616 72.6068 165.616 68.2586V40.0365C167.014 35.1961 169.071 33.6373 172.197 33.6373C175.324 33.6373 177.792 37.2471 177.792 42.0055V68.2586C177.792 72.6068 176.229 75.7243 173.267 77.4472V78.1035H201.157V77.4472C198.113 75.8064 196.55 72.6068 196.55 68.2586L196.632 68.1766Z" fill="#A2714C"/>
<path d="M232.256 68.1779V34.9513C232.256 30.6031 230.364 25.1064 228.883 25.1064C226.744 25.1064 223.37 28.388 209.302 31.8337C208.89 31.9158 208.808 31.9978 208.808 32.2439C208.808 32.49 208.973 32.6541 209.302 32.8182C211.935 34.6231 213.415 36.9203 213.415 41.0223V68.2599C213.415 72.6081 211.852 75.7257 208.808 77.4485V78.1049H236.863V77.4485C233.819 75.8077 232.256 72.6081 232.256 68.2599V68.1779Z" fill="#A2714C"/>
<path d="M226.411 3.63376C220.275 -2.2071 210.012 -1.0054 206.585 7.22957C203.4 14.8777 209.37 23.3921 217.555 23.1872C225.173 22.9915 231.794 13.7412 224.456 7.99345C221.467 5.65524 216.196 5.47824 213.337 8.21702C211.102 10.3596 211.046 13.9647 214.24 14.9988C215.19 15.3062 216.401 14.2628 215.982 13.2568C215.125 11.1887 218.617 10.6391 220.014 10.9744C222.835 11.6452 223.72 15.0081 221.625 16.955C219.017 19.3864 214.147 19.2932 211.558 16.983C207.852 13.6946 207.982 7.95619 211.297 4.46285C215.376 0.168368 221.709 0.559621 226.207 3.8946C226.356 4.00638 226.542 3.76418 226.402 3.63376H226.411Z" fill="#A2714C"/>
<path d="M272.323 77.3665C269.279 75.7257 267.716 72.5261 267.716 68.1779V41.9248C268.045 40.366 269.114 39.3815 270.595 39.3815C275.696 39.3815 276.19 43.3195 282.36 43.3195C287.214 43.3195 291.41 38.479 291.41 32.9823C291.41 28.0598 288.284 25.1064 283.101 25.1064C277.918 25.1064 272.488 29.5366 267.716 37.5766V34.9513C267.716 30.6031 265.824 25.1064 264.343 25.1064C262.204 25.1064 258.913 28.388 244.926 31.8337C244.515 31.9158 244.433 31.9978 244.433 32.2439C244.433 32.49 244.597 32.6541 244.926 32.8182C247.477 34.6231 248.958 36.8382 248.958 41.0223V68.2599C248.958 72.6081 247.394 75.7257 244.433 77.4485V78.1049H272.323V77.4485V77.3665Z" fill="#A2714C"/>
<path d="M328.844 33.5566C331.97 33.5566 334.438 37.1664 334.438 41.9248V68.1779C334.438 72.5261 332.875 75.6436 329.913 77.3665V78.0228H357.804V77.3665C354.76 75.7257 353.197 72.5261 353.197 68.1779V42.8272C353.197 31.5876 347.191 25.1064 336.824 25.1064C330.325 25.1064 324.977 28.9623 322.18 35.1154C322.18 33.5566 321.11 25.1064 318.807 25.1064C316.503 25.1064 313.294 28.388 299.226 31.8337C298.814 31.9158 298.732 31.9978 298.732 32.2439C298.732 32.49 298.897 32.6541 299.226 32.8182C301.858 34.6231 303.339 36.9203 303.339 41.0223V68.2599C303.339 72.6081 301.776 75.7257 298.732 77.4485V78.1049H326.787V77.4485C323.743 75.8077 322.18 72.6081 322.18 68.2599V40.0378C323.578 35.2794 325.635 33.6386 328.762 33.6386L328.844 33.5566Z" fill="#A2714C"/>
<path d="M14.9736 23.7938L49.1991 79.2536H65.3246L65.9005 23.6297C65.9827 13.1285 66.8055 4.76031 70.8368 3.69377V3.03745H42.1236V3.69377C50.2686 5.41663 52.49 15.5077 52.9836 27.4857V45.4527L53.2305 55.7078C52.8191 54.8874 51.585 52.9184 49.6105 49.8008L20.2391 3.03745H3.45546V4.59622L4.93636 58.4151C4.85409 68.9164 4.03136 77.2846 0 78.3511V79.0074H28.7132V78.3511C21.3086 76.7923 18.8405 68.3421 18.1 57.9229V35.1155C18.1 29.7828 17.9355 25.8449 17.6886 23.2195" fill="#A2714C"/>
</g>
<defs>
<clipPath id="clip0_187_1540">
<rect width="543" height="164" fill="white"/>
</clipPath>
</defs>
</svg>
