<svg xmlns="http://www.w3.org/2000/svg" height="20" viewBox="0 96 960 960" width="20"><path d="M408 724h144q11.9 0 19.95-8.05Q580 707.9 580 696v-52h-32v48H412V460h136v48h32v-52.027q0-11.912-8.05-19.942Q563.9 428 552 428H408q-11.9 0-19.95 8.05Q380 444.1 380 456v240q0 11.9 8.05 19.95Q396.1 724 408 724Zm72.409 196q-70.948 0-133.685-26.839-62.737-26.84-109.865-73.922-47.127-47.082-73.993-109.716Q136 646.889 136 575.675q0-71.214 26.839-133.451 26.84-62.237 73.922-109.365 47.082-47.127 109.716-73.993Q409.111 232 480.325 232q71.214 0 133.451 26.839 62.237 26.84 109.365 73.922 47.127 47.082 73.993 109.482Q824 504.643 824 575.591q0 70.948-26.839 133.685-26.84 62.737-73.922 109.865-47.082 47.127-109.482 73.993Q551.357 920 480.409 920ZM480 888q130 0 221-91t91-221q0-130-91-221t-221-91q-130 0-221 91t-91 221q0 130 91 221t221 91Zm0-312Z"/></svg>