<svg xmlns="http://www.w3.org/2000/svg" height="24" viewBox="0 96 960 960" width="24"><path d="M252.309 955.999q-30.308 0-51.308-21t-21-51.308V428.309q0-30.308 21-51.308t51.308-21h77.692v-10q0-62.154 43.923-106.077Q417.846 196.001 480 196.001q62.154 0 106.076 43.923 43.923 43.923 43.923 106.077v10h77.692q30.308 0 51.308 21t21 51.308v455.382q0 30.308-21 51.308t-51.308 21H252.309Zm0-59.999h455.382q4.616 0 8.463-3.846 3.846-3.847 3.846-8.463V428.309q0-4.616-3.846-8.463-3.847-3.846-8.463-3.846h-77.692v90.001q0 12.769-8.615 21.384T600 536q-12.769 0-21.384-8.615t-8.615-21.384V416H389.999v90.001q0 12.769-8.615 21.384T360 536q-12.769 0-21.384-8.615t-8.615-21.384V416h-77.692q-4.616 0-8.463 3.846-3.846 3.847-3.846 8.463v455.382q0 4.616 3.846 8.463 3.847 3.846 8.463 3.846Zm137.69-539.999h180.002v-10q0-37.616-26.193-63.808Q517.616 256 480 256t-63.808 26.193q-26.193 26.192-26.193 63.808v10ZM240 896V416 896Z"/></svg>